<svg width="30" height="30" viewBox="0 0 30 30" fill="none" xmlns="http://www.w3.org/2000/svg">
<path d="M24.975 7.1124C22.875 5.4374 19.875 4.9749 18.575 4.8374H18.525C18.325 4.8374 18.1375 4.9499 18.075 5.1374C17.9625 5.4249 18.1375 5.7374 18.425 5.7874C19.8875 6.0874 21.575 6.6124 23.1125 7.5749C23.425 7.7624 23.5 8.1874 23.25 8.4749C23.05 8.6999 22.7125 8.7249 22.45 8.5749C19.45 6.7249 15.725 6.6249 15 6.6249C14.275 6.6249 10.55 6.7249 7.55 8.5749C7.2875 8.7249 6.95 8.6999 6.75 8.4749C6.5 8.1874 6.575 7.7624 6.8875 7.5749C8.425 6.6124 10.1125 6.0874 11.575 5.7874C11.8625 5.7374 12.0375 5.4249 11.925 5.1374C11.8625 4.9499 11.675 4.8374 11.475 4.8374H11.425C10.125 4.9749 7.125 5.4374 5.025 7.1124C3.8 8.2499 1.3625 14.7874 1.25 20.5749C1.25 20.9624 1.35 21.3499 1.575 21.6624C3.0375 23.7249 6.2125 24.9624 8.6125 25.1374C8.975 25.1624 9.325 24.9999 9.5375 24.6999C9.55 24.6999 9.55 24.6874 9.5625 24.6749C10 24.0749 9.7375 23.2249 9.0375 22.9624C7.0375 22.2249 6.0125 21.3499 5.95 21.2874C5.7 21.0624 5.675 20.6874 5.8875 20.4374C6.1125 20.1874 6.4875 20.1624 6.7375 20.3874C6.775 20.4124 9.55 22.7749 15 22.7749C20.45 22.7749 23.225 20.4124 23.2625 20.3874C23.5125 20.1624 23.8875 20.1874 24.1125 20.4374C24.325 20.6874 24.3 21.0624 24.05 21.2874C23.9875 21.3499 22.9625 22.2249 20.9625 22.9624C20.2625 23.2249 20 24.0749 20.4375 24.6749C20.45 24.6874 20.45 24.6999 20.4625 24.6999C20.675 24.9999 21.025 25.1624 21.3875 25.1374C23.7875 24.9624 26.9625 23.7249 28.425 21.6624C28.65 21.3499 28.75 20.9624 28.75 20.5749C28.6375 14.7874 26.2 8.2499 24.975 7.1124ZM11.1125 18.5874C9.9625 18.5874 9.025 17.5124 9.025 16.1999C9.025 14.8749 9.9625 13.7999 11.1125 13.7999C12.275 13.7999 13.2 14.8749 13.2 16.1999C13.2 17.5124 12.275 18.5874 11.1125 18.5874ZM18.8875 18.5874C17.725 18.5874 16.8 17.5124 16.8 16.1999C16.8 14.8749 17.725 13.7999 18.8875 13.7999C20.0375 13.7999 20.975 14.8749 20.975 16.1999C20.975 17.5124 20.0375 18.5874 18.8875 18.5874Z" fill="white"/>
</svg>
